# xmcd
#
# Track frame offsets:
# 151
# 22260
# 44235
# 56198
#
# Disc length: 925 seconds
#
# Revision: 0
# Processed by: cddbd v1.4PL0 Copyright (c) Steve Scherf et al.
# Submitted via: Audion 3.0.2 (http://www.panic.com/audion/)
#
DISCID=3d039b04
DTITLE=Gibbs - Gibbs Liquid
DYEAR=1900
DGENRE=
TTITLE0=Scratch
TTITLE1=3m1
TTITLE2=5m4
TTITLE3=5m6
EXTD=
EXTT0=
EXTT1=
EXTT2=
EXTT3=
PLAYORDER=
